<mxfile host="app.diagrams.net" modified="2021-02-21T10:54:17.549Z" agent="5.0 (Windows NT 10.0; Win64; x64) AppleWebKit/537.36 (KHTML, like Gecko) Chrome/88.0.4324.182 Safari/537.36" etag="fq5YZ9SU7tfrm0VO_bZr" version="14.4.2" type="github">
  <diagram id="ga8Eyx0R0dnI47a1ck-I" name="Page-1">
    <mxGraphModel dx="865" dy="490" grid="1" gridSize="10" guides="1" tooltips="1" connect="1" arrows="1" fold="1" page="1" pageScale="1" pageWidth="827" pageHeight="1169" math="0" shadow="0">
      <root>
        <mxCell id="0" />
        <mxCell id="1" parent="0" />
        <mxCell id="BEVveeXb6Ck2c--d9WDv-6" style="rounded=0;orthogonalLoop=1;jettySize=auto;html=1;entryX=-0.02;entryY=0.932;entryDx=0;entryDy=0;entryPerimeter=0;endArrow=diamond;endFill=1;endSize=23;startSize=23;exitX=1;exitY=0.5;exitDx=0;exitDy=0;" parent="1" source="BEVveeXb6Ck2c--d9WDv-2" target="QPdnE1CLUlIL2td6pCKr-2" edge="1">
          <mxGeometry relative="1" as="geometry">
            <mxPoint x="220" y="103.36660039761432" as="sourcePoint" />
          </mxGeometry>
        </mxCell>
        <mxCell id="BEVveeXb6Ck2c--d9WDv-7" value="1..*" style="edgeLabel;html=1;align=center;verticalAlign=middle;resizable=0;points=[];" parent="BEVveeXb6Ck2c--d9WDv-6" vertex="1" connectable="0">
          <mxGeometry x="0.279" y="-3" relative="1" as="geometry">
            <mxPoint as="offset" />
          </mxGeometry>
        </mxCell>
        <mxCell id="B22s-Yo0bM5c4fi7S5wt-9" style="edgeStyle=orthogonalEdgeStyle;rounded=0;orthogonalLoop=1;jettySize=auto;html=1;endArrow=none;endFill=0;endSize=26;entryX=0.5;entryY=0;entryDx=0;entryDy=0;" edge="1" parent="1" source="QPdnE1CLUlIL2td6pCKr-1" target="B22s-Yo0bM5c4fi7S5wt-10">
          <mxGeometry relative="1" as="geometry">
            <mxPoint x="425" y="210" as="targetPoint" />
          </mxGeometry>
        </mxCell>
        <mxCell id="QPdnE1CLUlIL2td6pCKr-1" value="Faculty" style="swimlane;fontStyle=1;align=center;verticalAlign=top;childLayout=stackLayout;horizontal=1;startSize=26;horizontalStack=0;resizeParent=1;resizeParentMax=0;resizeLast=0;collapsible=1;marginBottom=0;shadow=1;" parent="1" vertex="1">
          <mxGeometry x="330" y="20" width="190" height="130" as="geometry" />
        </mxCell>
        <mxCell id="QPdnE1CLUlIL2td6pCKr-2" value="- name : string&#xa;- Instituts[] : Institut&#xa;- dekan: Dekan" style="text;strokeColor=none;fillColor=none;align=left;verticalAlign=top;spacingLeft=4;spacingRight=4;overflow=hidden;rotatable=0;points=[[0,0.5],[1,0.5]];portConstraint=eastwest;" parent="QPdnE1CLUlIL2td6pCKr-1" vertex="1">
          <mxGeometry y="26" width="190" height="44" as="geometry" />
        </mxCell>
        <mxCell id="QPdnE1CLUlIL2td6pCKr-3" value="" style="line;strokeWidth=1;fillColor=none;align=left;verticalAlign=middle;spacingTop=-1;spacingLeft=3;spacingRight=3;rotatable=0;labelPosition=right;points=[];portConstraint=eastwest;" parent="QPdnE1CLUlIL2td6pCKr-1" vertex="1">
          <mxGeometry y="70" width="190" height="8" as="geometry" />
        </mxCell>
        <mxCell id="QPdnE1CLUlIL2td6pCKr-4" value="+ setName(name : string): void&#xa;+ getName() : string" style="text;strokeColor=none;fillColor=none;align=left;verticalAlign=top;spacingLeft=4;spacingRight=4;overflow=hidden;rotatable=0;points=[[0,0.5],[1,0.5]];portConstraint=eastwest;" parent="QPdnE1CLUlIL2td6pCKr-1" vertex="1">
          <mxGeometry y="78" width="190" height="52" as="geometry" />
        </mxCell>
        <mxCell id="QPdnE1CLUlIL2td6pCKr-9" value="Worker" style="swimlane;fontStyle=3;align=center;verticalAlign=top;childLayout=stackLayout;horizontal=1;startSize=26;horizontalStack=0;resizeParent=1;resizeParentMax=0;resizeLast=0;collapsible=1;marginBottom=0;glass=0;rounded=0;shadow=1;" parent="1" vertex="1">
          <mxGeometry x="610" y="450" width="190" height="118" as="geometry" />
        </mxCell>
        <mxCell id="QPdnE1CLUlIL2td6pCKr-10" value="# id: size_t&#xa;# name: string&#xa;# email : string" style="text;strokeColor=none;fillColor=none;align=left;verticalAlign=top;spacingLeft=4;spacingRight=4;overflow=hidden;rotatable=0;points=[[0,0.5],[1,0.5]];portConstraint=eastwest;" parent="QPdnE1CLUlIL2td6pCKr-9" vertex="1">
          <mxGeometry y="26" width="190" height="44" as="geometry" />
        </mxCell>
        <mxCell id="QPdnE1CLUlIL2td6pCKr-11" value="" style="line;strokeWidth=1;fillColor=none;align=left;verticalAlign=middle;spacingTop=-1;spacingLeft=3;spacingRight=3;rotatable=0;labelPosition=right;points=[];portConstraint=eastwest;" parent="QPdnE1CLUlIL2td6pCKr-9" vertex="1">
          <mxGeometry y="70" width="190" height="8" as="geometry" />
        </mxCell>
        <mxCell id="QPdnE1CLUlIL2td6pCKr-12" value="+ getersÂ &#xa;+ seters" style="text;strokeColor=none;fillColor=none;align=left;verticalAlign=top;spacingLeft=4;spacingRight=4;overflow=hidden;rotatable=0;points=[[0,0.5],[1,0.5]];portConstraint=eastwest;" parent="QPdnE1CLUlIL2td6pCKr-9" vertex="1">
          <mxGeometry y="78" width="190" height="40" as="geometry" />
        </mxCell>
        <mxCell id="BEVveeXb6Ck2c--d9WDv-1" value="University" style="swimlane;fontStyle=1;align=center;verticalAlign=top;childLayout=stackLayout;horizontal=1;startSize=26;horizontalStack=0;resizeParent=1;resizeParentMax=0;resizeLast=0;collapsible=1;marginBottom=0;glass=0;shadow=1;" parent="1" vertex="1">
          <mxGeometry x="40" y="40" width="190" height="78" as="geometry" />
        </mxCell>
        <mxCell id="BEVveeXb6Ck2c--d9WDv-2" value="- Faculties[] : Faculty" style="text;strokeColor=none;fillColor=none;align=left;verticalAlign=top;spacingLeft=4;spacingRight=4;overflow=hidden;rotatable=0;points=[[0,0.5],[1,0.5]];portConstraint=eastwest;" parent="BEVveeXb6Ck2c--d9WDv-1" vertex="1">
          <mxGeometry y="26" width="190" height="44" as="geometry" />
        </mxCell>
        <mxCell id="BEVveeXb6Ck2c--d9WDv-3" value="" style="line;strokeWidth=1;fillColor=none;align=left;verticalAlign=middle;spacingTop=-1;spacingLeft=3;spacingRight=3;rotatable=0;labelPosition=right;points=[];portConstraint=eastwest;" parent="BEVveeXb6Ck2c--d9WDv-1" vertex="1">
          <mxGeometry y="70" width="190" height="8" as="geometry" />
        </mxCell>
        <mxCell id="B22s-Yo0bM5c4fi7S5wt-2" value="Institut" style="swimlane;fontStyle=1;align=center;verticalAlign=top;childLayout=stackLayout;horizontal=1;startSize=26;horizontalStack=0;resizeParent=1;resizeParentMax=0;resizeLast=0;collapsible=1;marginBottom=0;shadow=1;" vertex="1" parent="1">
          <mxGeometry x="610" y="20" width="190" height="150" as="geometry" />
        </mxCell>
        <mxCell id="B22s-Yo0bM5c4fi7S5wt-3" value="- name : string&#xa;- adress : string" style="text;strokeColor=none;fillColor=none;align=left;verticalAlign=top;spacingLeft=4;spacingRight=4;overflow=hidden;rotatable=0;points=[[0,0.5],[1,0.5]];portConstraint=eastwest;" vertex="1" parent="B22s-Yo0bM5c4fi7S5wt-2">
          <mxGeometry y="26" width="190" height="44" as="geometry" />
        </mxCell>
        <mxCell id="B22s-Yo0bM5c4fi7S5wt-4" value="" style="line;strokeWidth=1;fillColor=none;align=left;verticalAlign=middle;spacingTop=-1;spacingLeft=3;spacingRight=3;rotatable=0;labelPosition=right;points=[];portConstraint=eastwest;" vertex="1" parent="B22s-Yo0bM5c4fi7S5wt-2">
          <mxGeometry y="70" width="190" height="8" as="geometry" />
        </mxCell>
        <mxCell id="B22s-Yo0bM5c4fi7S5wt-5" value="+ setName(name : string): void&#xa;+ getName() : string&#xa;+ setAdress(adress: string): void&#xa;+ getAdress() : string&#xa;" style="text;strokeColor=none;fillColor=none;align=left;verticalAlign=top;spacingLeft=4;spacingRight=4;overflow=hidden;rotatable=0;points=[[0,0.5],[1,0.5]];portConstraint=eastwest;" vertex="1" parent="B22s-Yo0bM5c4fi7S5wt-2">
          <mxGeometry y="78" width="190" height="72" as="geometry" />
        </mxCell>
        <mxCell id="B22s-Yo0bM5c4fi7S5wt-1" style="edgeStyle=orthogonalEdgeStyle;rounded=0;orthogonalLoop=1;jettySize=auto;html=1;entryX=-0.017;entryY=0.786;entryDx=0;entryDy=0;entryPerimeter=0;endArrow=diamond;endFill=1;endSize=26;verticalAlign=middle;" edge="1" parent="1" source="QPdnE1CLUlIL2td6pCKr-2" target="B22s-Yo0bM5c4fi7S5wt-3">
          <mxGeometry relative="1" as="geometry">
            <mxPoint x="600" y="68" as="targetPoint" />
          </mxGeometry>
        </mxCell>
        <mxCell id="B22s-Yo0bM5c4fi7S5wt-8" value="1..*" style="edgeLabel;html=1;align=center;verticalAlign=middle;resizable=0;points=[];" vertex="1" connectable="0" parent="B22s-Yo0bM5c4fi7S5wt-1">
          <mxGeometry x="-0.788" y="1" relative="1" as="geometry">
            <mxPoint as="offset" />
          </mxGeometry>
        </mxCell>
        <mxCell id="B22s-Yo0bM5c4fi7S5wt-10" value="Dekan" style="swimlane;fontStyle=1;align=center;verticalAlign=top;childLayout=stackLayout;horizontal=1;startSize=26;horizontalStack=0;resizeParent=1;resizeParentMax=0;resizeLast=0;collapsible=1;marginBottom=0;glass=0;rounded=0;shadow=1;" vertex="1" parent="1">
          <mxGeometry x="330" y="230" width="190" height="34" as="geometry" />
        </mxCell>
        <mxCell id="B22s-Yo0bM5c4fi7S5wt-12" value="" style="line;strokeWidth=1;fillColor=none;align=left;verticalAlign=middle;spacingTop=-1;spacingLeft=3;spacingRight=3;rotatable=0;labelPosition=right;points=[];portConstraint=eastwest;" vertex="1" parent="B22s-Yo0bM5c4fi7S5wt-10">
          <mxGeometry y="26" width="190" height="8" as="geometry" />
        </mxCell>
        <mxCell id="B22s-Yo0bM5c4fi7S5wt-15" style="edgeStyle=orthogonalEdgeStyle;rounded=0;orthogonalLoop=1;jettySize=auto;html=1;entryX=0;entryY=0.5;entryDx=0;entryDy=0;endArrow=classic;endFill=0;endSize=26;exitX=0.5;exitY=1;exitDx=0;exitDy=0;" edge="1" parent="1" source="B22s-Yo0bM5c4fi7S5wt-10" target="QPdnE1CLUlIL2td6pCKr-10">
          <mxGeometry relative="1" as="geometry">
            <mxPoint x="520" y="278" as="sourcePoint" />
          </mxGeometry>
        </mxCell>
        <mxCell id="B22s-Yo0bM5c4fi7S5wt-25" style="edgeStyle=orthogonalEdgeStyle;rounded=0;orthogonalLoop=1;jettySize=auto;html=1;entryX=0.5;entryY=0;entryDx=0;entryDy=0;endArrow=classic;endFill=0;endSize=26;" edge="1" parent="1" source="B22s-Yo0bM5c4fi7S5wt-20" target="QPdnE1CLUlIL2td6pCKr-9">
          <mxGeometry relative="1" as="geometry" />
        </mxCell>
        <mxCell id="B22s-Yo0bM5c4fi7S5wt-27" style="edgeStyle=orthogonalEdgeStyle;rounded=0;orthogonalLoop=1;jettySize=auto;html=1;exitX=0.5;exitY=0;exitDx=0;exitDy=0;endArrow=diamond;endFill=0;endSize=26;" edge="1" parent="1" source="B22s-Yo0bM5c4fi7S5wt-20">
          <mxGeometry relative="1" as="geometry">
            <mxPoint x="705" y="180" as="targetPoint" />
          </mxGeometry>
        </mxCell>
        <mxCell id="B22s-Yo0bM5c4fi7S5wt-20" value="Searcher" style="swimlane;fontStyle=1;align=center;verticalAlign=top;childLayout=stackLayout;horizontal=1;startSize=26;horizontalStack=0;resizeParent=1;resizeParentMax=0;resizeLast=0;collapsible=1;marginBottom=0;shadow=1;" vertex="1" parent="1">
          <mxGeometry x="610" y="290" width="190" height="112" as="geometry" />
        </mxCell>
        <mxCell id="B22s-Yo0bM5c4fi7S5wt-21" value="- item : item&#xa;- Institutes : Institut" style="text;strokeColor=none;fillColor=none;align=left;verticalAlign=top;spacingLeft=4;spacingRight=4;overflow=hidden;rotatable=0;points=[[0,0.5],[1,0.5]];portConstraint=eastwest;" vertex="1" parent="B22s-Yo0bM5c4fi7S5wt-20">
          <mxGeometry y="26" width="190" height="44" as="geometry" />
        </mxCell>
        <mxCell id="B22s-Yo0bM5c4fi7S5wt-22" value="" style="line;strokeWidth=1;fillColor=none;align=left;verticalAlign=middle;spacingTop=-1;spacingLeft=3;spacingRight=3;rotatable=0;labelPosition=right;points=[];portConstraint=eastwest;" vertex="1" parent="B22s-Yo0bM5c4fi7S5wt-20">
          <mxGeometry y="70" width="190" height="2" as="geometry" />
        </mxCell>
        <mxCell id="B22s-Yo0bM5c4fi7S5wt-23" value="geter&#xa;seter" style="text;strokeColor=none;fillColor=none;align=left;verticalAlign=top;spacingLeft=4;spacingRight=4;overflow=hidden;rotatable=0;points=[[0,0.5],[1,0.5]];portConstraint=eastwest;" vertex="1" parent="B22s-Yo0bM5c4fi7S5wt-20">
          <mxGeometry y="72" width="190" height="40" as="geometry" />
        </mxCell>
      </root>
    </mxGraphModel>
  </diagram>
</mxfile>
